<svg xmlns="http://www.w3.org/2000/svg"  viewBox="0 0 48 48" width="20px" height="20px"><linearGradient id="SVGID_1_" x1="34.618" x2="17.284" y1="11.573" y2="28.908" gradientUnits="userSpaceOnUse"><stop offset="0" stop-color="#60affe"/><stop offset="1" stop-color="#fff"/></linearGradient><path fill="url(#SVGID_1_)" d="M34.625,18.575L12.163,7.711c-0.734-0.355-1.562,0.271-1.42,1.074l4.338,24.572	c0.152,0.86,1.256,1.126,1.783,0.429l4.444-5.879l9.384,12.086c0.333,0.44,0.96,0.528,1.401,0.194l4.785-3.619	c0.44-0.333,0.528-0.96,0.194-1.401l-9.384-12.086l6.866-2.675C35.367,20.09,35.412,18.955,34.625,18.575z"/><path fill="none" stroke="#2e9bfe" stroke-linecap="round" stroke-linejoin="round" stroke-width="3" d="M30.696,27.048l-2.556-3.291l6.866-2.675c0.814-0.317,0.859-1.452,0.072-1.832L12.616,8.386	c-0.734-0.355-1.562,0.271-1.42,1.074l1.464,8.562"/><path fill="none" stroke="#2e9bfe" stroke-linecap="round" stroke-linejoin="round" stroke-width="3" d="M13.572,22.919l1.962,11.112c0.152,0.86,1.256,1.126,1.783,0.429l4.444-5.879l9.384,12.086	c0.333,0.44,0.96,0.528,1.401,0.194l4.785-3.619c0.44-0.333,0.528-0.96,0.194-1.401l-3.258-4.196"/></svg>